# xmcd
#
# Track frame offsets: 
#        150
#        34269
#        56544
#        69213
#        84797
#        107222
#        129797
#        142000
#        198067
#        220567
#        242917
#        265867
#        287917
#        310492
#
# Disc length: 4426 seconds
#
# Revision: 0
# Processed by: cddbd v1.5.2PL0 Copyright (c) Steve Scherf et al.
# Submitted via: ExactAudioCopy v0.99pb4
#
DISCID=c411480e
DTITLE=Martin Luther King Jr. - A Call To Conscience: The La..
DYEAR=1900
DGENRE=Speech
TTITLE0=Introduction to "Eulogy for the Martyred Children"
TTITLE1=Eulogy for the Martyred Children (1)
TTITLE2=Eulogy for the Martyred Children (2)
TTITLE3=Introduction to "Acceptance Speech at Nobel Peace Prize Ceremo
TTITLE3=ny"
TTITLE4=Acceptance Speech at Nobel Peace Prize Ceremony (1)
TTITLE5=Acceptance Speech at Nobel Peace Prize Ceremony (2)
TTITLE6=Acceptance Speech at Nobel Peace Prize Ceremony (3)
TTITLE7=Introduction to "Our God is Marching On!"
TTITLE8=Our God is Marching On! (1)
TTITLE9=Our God is Marching On! (2)
TTITLE10=Our God is Marching On! (3)
TTITLE11=Our God is Marching On! (4)
TTITLE12=Our God is Marching On! (5)
TTITLE13=Our God is Marching On! (6)
EXTD=
EXTT0=
EXTT1=
EXTT2=
EXTT3=
EXTT4=
EXTT5=
EXTT6=
EXTT7=
EXTT8=
EXTT9=
EXTT10=
EXTT11=
EXTT12=
EXTT13=
PLAYORDER=
